<?xml version="1.0" encoding="iso-8859-1"?>
<!-- Generator: Adobe Illustrator 19.0.0, SVG Export Plug-In . SVG Version: 6.00 Build 0)  -->
<svg version="1.1" id="Layer_1" xmlns="http://www.w3.org/2000/svg" xmlns:xlink="http://www.w3.org/1999/xlink" x="0px" y="0px"
	 viewBox="0 0 511.998 511.998" style="enable-background:new 0 0 511.998 511.998;" xml:space="preserve">
<g>
	<path style="fill:#FF9478;" d="M228.062,44.124c0,0-178.989,107.429-36.812,154.323C192.454,197.144,228.062,44.124,228.062,44.124
		z"/>
	<path style="fill:#FF9478;" d="M283.934,44.124c0,0,178.989,107.429,36.812,154.323C319.542,197.144,283.934,44.124,283.934,44.124
		z"/>
	<path style="fill:#FF9478;" d="M194.822,317.723c-22.761,0-41.278-18.517-41.278-41.278s18.517-41.278,41.278-41.278
		s41.278,18.517,41.278,41.278S217.583,317.723,194.822,317.723z"/>
</g>
<circle style="fill:#57565C;" cx="194.822" cy="276.45" r="26.07"/>
<path style="fill:#FF9478;" d="M317.199,317.772c-22.774,0-41.303-18.528-41.303-41.303c0-22.774,18.528-41.303,41.303-41.303
	s41.302,18.528,41.302,41.303C358.501,299.243,339.973,317.772,317.199,317.772z"/>
<circle style="fill:#57565C;" cx="317.195" cy="276.47" r="26.095"/>
<path style="fill:#FF3F62;" d="M370.935,311.624c-11.154,0-20.194,9.042-20.194,20.194c0,20.165-16.405,36.57-36.57,36.57
	c-20.165,0-36.57-16.405-36.57-36.57V172.239c0.05-0.033-43.255-0.033-43.206,0v159.58c0,20.165-16.405,36.57-36.57,36.57
	c-20.165,0-36.57-16.405-36.57-36.57c0-11.154-9.042-20.194-20.194-20.194c-11.154,0-20.194,9.042-20.194,20.194
	c0,42.435,34.524,76.959,76.959,76.959c23.217,0,44.051-10.348,58.172-26.66c14.121,16.312,34.955,26.66,58.172,26.66
	c42.435,0,76.959-34.523,76.959-76.959C391.129,320.665,382.088,311.624,370.935,311.624z"/>
<path style="fill:#FF0C38;" d="M349.446,400.181c-4.553-1.431-7.867-5.69-7.867-10.709V355.99
	c-6.706,7.595-16.505,12.397-27.408,12.397c-20.165,0-36.57-16.405-36.57-36.57v-127.51c-6.722-0.01-13.97-0.015-21.466-0.015
	c-7.593,0-14.935,0.005-21.739,0.015v127.51c0,20.165-16.405,36.57-36.57,36.57c-10.904,0-20.702-4.803-27.408-12.397v33.482
	c0,5.02-3.312,9.279-7.867,10.709c10.576,5.479,22.564,8.595,35.275,8.595c23.218,0,44.051-10.348,58.172-26.659
	c14.121,16.312,34.955,26.659,58.172,26.659C326.881,408.777,338.87,405.66,349.446,400.181z"/>
<path style="fill:#FF728B;" d="M409.567,369.277c-11.153,0-20.194,9.042-20.194,20.194c0,20.165-16.405,36.57-36.57,36.57
	s-36.57-16.405-36.57-36.57v-159.58c0.502-0.337-120.971-0.336-120.469,0.001v159.579c0,20.165-16.405,36.57-36.57,36.57
	s-36.57-16.405-36.57-36.57c0-11.153-9.042-20.194-20.194-20.194s-20.194,9.042-20.194,20.194c0,42.435,34.524,76.959,76.959,76.959
	c39.97,0,72.917-30.631,76.609-69.651v87.422c0,11.154,9.042,20.194,20.194,20.194c11.153,0,20.194-9.042,20.194-20.194v-87.426
	c3.69,39.023,36.638,69.656,76.61,69.656c42.435,0,76.959-34.524,76.959-76.959C429.762,378.318,420.72,369.277,409.567,369.277z"/>
<g>
	<path style="fill:#FF6243;" d="M191.25,198.446c1.204-1.302,36.812-154.323,36.812-154.323s-24.936,14.969-48.8,36.167
		c-1.071,3.38-15.449,42.731-23.399,101.099C164.35,187.638,175.931,193.394,191.25,198.446z"/>
	<path style="fill:#FF6243;" d="M320.746,198.446c-1.204-1.302-36.812-154.323-36.812-154.323s24.936,14.969,48.8,36.167
		c1.071,3.38,15.449,42.731,23.399,101.099C347.646,187.638,336.065,193.394,320.746,198.446z"/>
</g>
<path style="fill:#FF3F62;" d="M316.233,296.976v-67.085c0.502-0.337-120.971-0.336-120.469,0.001v66.839
	c17.512,13.915,42.565,27.645,60.235,27.645C273.881,324.376,298.8,310.814,316.233,296.976z"/>
<path style="fill:#FFBCAB;" d="M334.307,220.721c0,43.248-60.694,78.309-78.309,78.309c-16.815,0-78.309-35.06-78.309-78.309
	S212.75,7.604,255.998,7.604S334.307,177.472,334.307,220.721z"/>
<path style="fill:#FF9478;" d="M208.358,220.721c0-38.001,27.068-173.749,62.975-206.137c-4.96-4.472-10.087-6.979-15.335-6.979
	c-43.248,0-78.309,169.868-78.309,213.117s61.494,78.309,78.309,78.309c3.634,0,9.101-1.495,15.49-4.242
	C247.097,284.215,208.358,255.049,208.358,220.721z"/>
<g>
	<path style="fill:#FF728B;" d="M283.934,175.544c-2.358,0-4.656-0.953-6.31-2.62c-1.668-1.656-2.62-3.965-2.62-6.31
		c0-2.346,0.952-4.656,2.62-6.311c1.655-1.667,3.952-2.619,6.31-2.619c2.357,0,4.656,0.952,6.31,2.619
		c1.668,1.656,2.62,3.965,2.62,6.311c0,2.345-0.952,4.656-2.62,6.31C288.591,174.591,286.291,175.544,283.934,175.544z"/>
	<path style="fill:#FF728B;" d="M245.031,209.616c-2.358,0-4.656-0.953-6.31-2.62c-1.668-1.656-2.62-3.965-2.62-6.31
		c0-2.346,0.952-4.656,2.62-6.311c1.655-1.667,3.952-2.619,6.31-2.619c2.357,0,4.656,0.952,6.31,2.619
		c1.668,1.656,2.62,3.965,2.62,6.311c0,2.345-0.952,4.656-2.62,6.31C249.687,208.663,247.387,209.616,245.031,209.616z"/>
	<path style="fill:#FF728B;" d="M292.865,230.754c-2.358,0-4.656-0.953-6.31-2.62c-1.668-1.656-2.62-3.965-2.62-6.31
		c0-2.346,0.952-4.656,2.62-6.311c1.655-1.667,3.952-2.619,6.31-2.619c2.357,0,4.656,0.952,6.31,2.619
		c1.668,1.656,2.62,3.965,2.62,6.311c0,2.345-0.952,4.656-2.62,6.31C297.521,229.801,295.222,230.754,292.865,230.754z"/>
	<path style="fill:#FF728B;" d="M253.961,130.215c-2.358,0-4.656-0.953-6.31-2.62c-1.668-1.656-2.62-3.965-2.62-6.31
		c0-2.346,0.952-4.656,2.62-6.311c1.655-1.667,3.952-2.619,6.31-2.619c2.357,0,4.656,0.952,6.31,2.619
		c1.668,1.656,2.62,3.965,2.62,6.311c0,2.345-0.952,4.656-2.62,6.31C258.617,129.263,256.318,130.215,253.961,130.215z"/>
</g>
<path d="M195.874,114.763c-4.068-1.027-8.205,1.439-9.233,5.51c-0.819,3.241-1.632,6.571-2.421,9.897
	c-0.968,4.086,1.518,8.383,5.646,9.151c5.896,1.098,8.324-2.149,9.151-5.646c0.772-3.253,1.567-6.509,2.367-9.678
	C202.413,119.926,199.947,115.791,195.874,114.763z"/>
<path d="M409.568,361.674c-7.931,0-15.092,3.345-20.162,8.691c6.08-11.834,9.329-25.007,9.329-38.546
	c0-15.329-12.47-27.798-27.798-27.798c-15.329,0-27.799,12.47-27.799,27.798c0,12.383-7.985,23.267-19.3,27.299v-34.201
	c23.835-3.24,42.268-23.712,42.268-48.422c0-18.051-10.104-34.583-25.721-43.028c1.005-4.26,1.526-8.519,1.526-12.744
	c0-5.484-0.539-12.895-1.562-21.665c26.386-11.819,40.738-27.61,42.664-46.978c4.066-40.89-49.696-83.988-82.435-106.225
	C286.649,15.388,271.725,0,255.998,0c-15.755,0-30.682,15.401-44.601,45.867c-33.287,22.595-86.61,65.538-82.397,106.372
	c1.99,19.293,16.331,35.024,42.639,46.814c-1.008,8.644-1.553,16.068-1.553,21.668c0,4.213,0.525,8.462,1.538,12.715
	c-15.596,8.452-25.685,24.972-25.685,43.009c0,24.693,18.409,45.155,42.22,48.416v34.26c-11.332-4.017-19.3-14.859-19.3-27.304
	c0-15.329-12.471-27.798-27.799-27.798c-15.328,0-27.798,12.47-27.798,27.798c0,13.793,3.32,26.864,9.22,38.432
	c-5.063-5.28-12.179-8.577-20.053-8.577c-15.328,0-27.798,12.47-27.798,27.798c0,46.627,37.935,84.562,84.563,84.562
	c21.153,0,41.412-7.88,57.044-22.188c4.495-4.115,8.497-8.657,11.963-13.539V484.2c0,15.329,12.471,27.798,27.798,27.798
	s27.798-12.47,27.798-27.798v-45.895c3.464,4.882,7.466,9.423,11.962,13.538c15.632,14.31,35.891,22.189,57.046,22.189
	c12.716,0,24.951-2.767,36.365-8.224c3.788-1.812,5.391-6.352,3.58-10.141c-1.812-3.789-6.353-5.39-10.141-3.58
	c-9.35,4.47-19.377,6.737-29.804,6.737c-35.385,0-65.711-27.571-69.041-62.768c-0.383-4.042-3.844-7.083-7.928-6.88
	c-4.055,0.192-7.245,3.535-7.245,7.596v87.427c0,6.943-5.647,12.59-12.59,12.59s-12.59-5.648-12.59-12.59v-87.423
	c0-4.06-3.19-7.404-7.245-7.596c-4.07-0.203-7.546,2.837-7.928,6.879c-3.331,35.194-33.656,62.764-69.04,62.764
	c-38.243,0-69.355-31.112-69.355-69.354c0-6.943,5.647-12.59,12.59-12.59c6.943,0,12.591,5.648,12.591,12.59
	c0,24.357,19.816,44.174,44.173,44.174s44.174-19.816,44.174-44.174V280.021c0.783,0.663,33.621,26.71,52.631,26.612
	s51.951-25.79,52.631-26.365v109.204c0,24.357,19.817,44.174,44.174,44.174s44.173-19.816,44.173-44.174
	c0-6.943,5.648-12.59,12.591-12.59c6.943,0,12.59,5.648,12.59,12.59c0,19.393-8.24,38.048-22.606,51.183
	c-3.1,2.834-3.397,7.721-0.482,10.743c3.938,4.08,9.284,1.815,10.743,0.482c17.51-16.009,27.553-38.755,27.553-62.407
	C437.366,374.143,424.895,361.674,409.568,361.674z M358.344,331.818c0-6.943,5.648-12.59,12.591-12.59
	c6.943,0,12.59,5.648,12.59,12.59c0,34.151-24.466,62.736-57.634,68.349c-1.321-3.311-2.055-6.919-2.055-10.695v-14.557
	C343.732,370.444,358.344,352.5,358.344,331.818z M328.085,276.493c0,3.5-1.671,6.609-4.248,8.597v-17.193
	C326.415,269.885,328.085,272.994,328.085,276.493z M350.897,276.493c0,16.304-11.649,29.936-27.06,33.018v-7.797
	c11.195-2.928,19.456-13.109,19.456-25.222c0-9.186-4.755-17.256-11.933-21.899c1.364-2.194,2.6-4.402,3.706-6.621
	C344.737,254.059,350.897,264.808,350.897,276.493z M367.879,150.573c-1.258,12.655-11.238,23.633-29.678,32.697
	c-3.889-25.425-10.668-57.518-19.538-87.484c-2.478-8.37-4.995-16.181-7.55-23.463C336.1,91.742,370.55,123.698,367.879,150.573z
	 M188.16,267.884v17.121c-2.551-1.989-4.199-5.082-4.199-8.56C183.96,272.967,185.609,269.874,188.16,267.884z M161.147,276.445
	c0-11.687,6.162-22.437,15.837-28.523c1.112,2.213,2.355,4.417,3.727,6.606c-7.192,4.64-11.96,12.719-11.96,21.916
	c0,12.095,8.238,22.263,19.407,25.208v7.802C172.771,306.353,161.147,292.732,161.147,276.445z M141.061,319.227
	c6.943,0,12.591,5.648,12.591,12.59c0,20.783,14.575,38.647,34.508,43.107v14.547c0,3.779-0.735,7.387-2.057,10.7
	c-33.118-5.629-57.632-34.344-57.632-68.355C128.47,324.876,134.118,319.227,141.061,319.227z M130.227,389.472
	c0-3.072-0.508-6.026-1.433-8.791c11.108,15.694,27.459,27.473,46.717,32.708c-4.651,3.184-10.27,5.049-16.319,5.049
	C143.222,418.438,130.227,405.443,130.227,389.472z M296.952,270.2c-16.98,13.849-34.694,21.225-40.954,21.225
	c-13.427,0-70.704-32.622-70.704-70.705c0-13.437,3.668-39.858,9.347-67.311c0.851-4.112-1.795-8.136-5.907-8.987
	c-4.106-0.851-8.135,1.794-8.986,5.907c-2.378,11.497-4.395,22.698-5.963,32.94c-18.389-9.039-28.356-19.977-29.656-32.592
	c-2.773-26.875,31.464-58.736,56.744-78.356c-2.984,8.513-5.915,17.758-8.792,27.76c-1.161,4.035,1.17,8.249,5.206,9.41
	c4.04,1.162,8.25-1.17,9.41-5.206c18.887-65.676,37.851-89.077,49.301-89.077c11.095,0,29.552,22.302,48.081,84.895
	c13.973,47.207,22.622,99.366,22.622,120.618C326.702,242.661,308.063,261.138,296.952,270.2z M352.802,418.438
	c-6.057,0-11.683-1.872-16.337-5.062c15.368-4.204,29.339-12.703,40.258-24.706c2.365-2.601,4.537-5.339,6.541-8.178
	c-0.965,2.82-1.496,5.838-1.496,8.98C381.768,405.443,368.774,418.438,352.802,418.438z"/>
<g>
</g>
<g>
</g>
<g>
</g>
<g>
</g>
<g>
</g>
<g>
</g>
<g>
</g>
<g>
</g>
<g>
</g>
<g>
</g>
<g>
</g>
<g>
</g>
<g>
</g>
<g>
</g>
<g>
</g>
</svg>
